<mxfile host="app.diagrams.net" agent="Mozilla/5.0 (Windows NT 10.0; Win64; x64) AppleWebKit/537.36 (KHTML, like Gecko) Chrome/140.0.0.0 Safari/537.36" version="28.2.3" pages="2">
  <diagram name="AS-IS" id="onkvtfFwKgzJO0BobrZ3">
    <mxGraphModel grid="1" page="1" gridSize="10" guides="1" tooltips="1" connect="1" arrows="1" fold="1" pageScale="1" pageWidth="827" pageHeight="1169" math="0" shadow="0">
      <root>
        <mxCell id="0" />
        <mxCell id="1" parent="0" />
        <mxCell id="calRpf7Ut-MRDMJ-sCPS-1" value="Proceso Actual Reciclaje DUOC" style="swimlane;html=1;childLayout=stackLayout;resizeParent=1;resizeParentMax=0;horizontal=0;startSize=20;horizontalStack=0;whiteSpace=wrap;" vertex="1" parent="1">
          <mxGeometry x="130" y="40" width="520" height="540" as="geometry" />
        </mxCell>
        <mxCell id="calRpf7Ut-MRDMJ-sCPS-2" value="Alumno" style="swimlane;html=1;startSize=20;horizontal=0;" vertex="1" parent="calRpf7Ut-MRDMJ-sCPS-1">
          <mxGeometry x="20" width="500" height="80" as="geometry" />
        </mxCell>
        <mxCell id="calRpf7Ut-MRDMJ-sCPS-6" value="&lt;font style=&quot;color: light-dark(rgb(0, 0, 0), rgb(251, 251, 251));&quot;&gt;Inicio&lt;/font&gt;" style="points=[[0.145,0.145,0],[0.5,0,0],[0.855,0.145,0],[1,0.5,0],[0.855,0.855,0],[0.5,1,0],[0.145,0.855,0],[0,0.5,0]];shape=mxgraph.bpmn.event;html=1;verticalLabelPosition=bottom;labelBackgroundColor=#ffffff;verticalAlign=top;align=center;perimeter=ellipsePerimeter;outlineConnect=0;aspect=fixed;outline=end;symbol=terminate;fillColor=#60a917;strokeColor=#2D7600;fontColor=#ffffff;" vertex="1" parent="calRpf7Ut-MRDMJ-sCPS-2">
          <mxGeometry x="50" y="15" width="40" height="40" as="geometry" />
        </mxCell>
        <mxCell id="calRpf7Ut-MRDMJ-sCPS-7" value="Alumno lleva material al punto de reciclaje" style="points=[[0.25,0,0],[0.5,0,0],[0.75,0,0],[1,0.25,0],[1,0.5,0],[1,0.75,0],[0.75,1,0],[0.5,1,0],[0.25,1,0],[0,0.75,0],[0,0.5,0],[0,0.25,0]];shape=mxgraph.bpmn.task2;whiteSpace=wrap;rectStyle=rounded;size=10;html=1;container=1;expand=0;collapsible=0;taskMarker=abstract;" vertex="1" parent="calRpf7Ut-MRDMJ-sCPS-2">
          <mxGeometry x="190" y="10" width="96" height="50" as="geometry" />
        </mxCell>
        <mxCell id="calRpf7Ut-MRDMJ-sCPS-8" value="" style="edgeStyle=elbowEdgeStyle;fontSize=12;html=1;endArrow=blockThin;endFill=1;rounded=0;exitX=1;exitY=0.5;exitDx=0;exitDy=0;exitPerimeter=0;entryX=0;entryY=0.5;entryDx=0;entryDy=0;entryPerimeter=0;" edge="1" parent="calRpf7Ut-MRDMJ-sCPS-2" source="calRpf7Ut-MRDMJ-sCPS-6" target="calRpf7Ut-MRDMJ-sCPS-7">
          <mxGeometry width="160" relative="1" as="geometry">
            <mxPoint x="170" y="200" as="sourcePoint" />
            <mxPoint x="180" y="45" as="targetPoint" />
            <Array as="points">
              <mxPoint x="180" y="30" />
            </Array>
          </mxGeometry>
        </mxCell>
        <mxCell id="calRpf7Ut-MRDMJ-sCPS-3" value="Encargado del punto de reciclaje" style="swimlane;html=1;startSize=20;horizontal=0;" vertex="1" parent="calRpf7Ut-MRDMJ-sCPS-1">
          <mxGeometry x="20" y="80" width="500" height="460" as="geometry" />
        </mxCell>
        <mxCell id="calRpf7Ut-MRDMJ-sCPS-13" style="edgeStyle=orthogonalEdgeStyle;rounded=0;orthogonalLoop=1;jettySize=auto;html=1;" edge="1" parent="calRpf7Ut-MRDMJ-sCPS-3" source="calRpf7Ut-MRDMJ-sCPS-9" target="calRpf7Ut-MRDMJ-sCPS-11">
          <mxGeometry relative="1" as="geometry" />
        </mxCell>
        <mxCell id="calRpf7Ut-MRDMJ-sCPS-9" value="Encargado recibe el material" style="points=[[0.25,0,0],[0.5,0,0],[0.75,0,0],[1,0.25,0],[1,0.5,0],[1,0.75,0],[0.75,1,0],[0.5,1,0],[0.25,1,0],[0,0.75,0],[0,0.5,0],[0,0.25,0]];shape=mxgraph.bpmn.task2;whiteSpace=wrap;rectStyle=rounded;size=10;html=1;container=1;expand=0;collapsible=0;taskMarker=abstract;" vertex="1" parent="calRpf7Ut-MRDMJ-sCPS-3">
          <mxGeometry x="186" y="20" width="100" height="45" as="geometry" />
        </mxCell>
        <mxCell id="calRpf7Ut-MRDMJ-sCPS-19" style="edgeStyle=orthogonalEdgeStyle;rounded=0;orthogonalLoop=1;jettySize=auto;html=1;" edge="1" parent="calRpf7Ut-MRDMJ-sCPS-3" source="calRpf7Ut-MRDMJ-sCPS-11" target="calRpf7Ut-MRDMJ-sCPS-18">
          <mxGeometry relative="1" as="geometry" />
        </mxCell>
        <mxCell id="calRpf7Ut-MRDMJ-sCPS-11" value="Â¿Se registra reciclaje?" style="points=[[0.25,0.25,0],[0.5,0,0],[0.75,0.25,0],[1,0.5,0],[0.75,0.75,0],[0.5,1,0],[0.25,0.75,0],[0,0.5,0]];shape=mxgraph.bpmn.gateway2;html=1;verticalLabelPosition=bottom;labelBackgroundColor=#ffffff;verticalAlign=top;align=center;perimeter=rhombusPerimeter;outlineConnect=0;outline=none;symbol=none;" vertex="1" parent="calRpf7Ut-MRDMJ-sCPS-3">
          <mxGeometry x="193.5" y="95" width="85" height="80" as="geometry" />
        </mxCell>
        <mxCell id="calRpf7Ut-MRDMJ-sCPS-15" value="No" style="text;html=1;strokeColor=none;fillColor=none;align=center;verticalAlign=middle;whiteSpace=wrap;rounded=0;" vertex="1" parent="calRpf7Ut-MRDMJ-sCPS-3">
          <mxGeometry x="270" y="100" width="80" height="30" as="geometry" />
        </mxCell>
        <mxCell id="calRpf7Ut-MRDMJ-sCPS-12" style="edgeStyle=orthogonalEdgeStyle;rounded=0;orthogonalLoop=1;jettySize=auto;html=1;entryX=0;entryY=0.5;entryDx=0;entryDy=0;entryPerimeter=0;" edge="1" parent="calRpf7Ut-MRDMJ-sCPS-3" source="calRpf7Ut-MRDMJ-sCPS-11" target="calRpf7Ut-MRDMJ-sCPS-17">
          <mxGeometry relative="1" as="geometry">
            <mxPoint x="350" y="135" as="targetPoint" />
          </mxGeometry>
        </mxCell>
        <mxCell id="calRpf7Ut-MRDMJ-sCPS-16" value="Si" style="text;html=1;strokeColor=none;fillColor=none;align=center;verticalAlign=middle;whiteSpace=wrap;rounded=0;" vertex="1" parent="calRpf7Ut-MRDMJ-sCPS-3">
          <mxGeometry x="140" y="150" width="80" height="30" as="geometry" />
        </mxCell>
        <mxCell id="calRpf7Ut-MRDMJ-sCPS-17" value="No queda evidencia del reciclaje" style="points=[[0.25,0,0],[0.5,0,0],[0.75,0,0],[1,0.25,0],[1,0.5,0],[1,0.75,0],[0.75,1,0],[0.5,1,0],[0.25,1,0],[0,0.75,0],[0,0.5,0],[0,0.25,0]];shape=mxgraph.bpmn.task2;whiteSpace=wrap;rectStyle=rounded;size=10;html=1;container=1;expand=0;collapsible=0;taskMarker=abstract;" vertex="1" parent="calRpf7Ut-MRDMJ-sCPS-3">
          <mxGeometry x="350" y="112.5" width="100" height="45" as="geometry" />
        </mxCell>
        <mxCell id="calRpf7Ut-MRDMJ-sCPS-21" style="edgeStyle=orthogonalEdgeStyle;rounded=0;orthogonalLoop=1;jettySize=auto;html=1;" edge="1" parent="calRpf7Ut-MRDMJ-sCPS-3" source="calRpf7Ut-MRDMJ-sCPS-18" target="calRpf7Ut-MRDMJ-sCPS-20">
          <mxGeometry relative="1" as="geometry" />
        </mxCell>
        <mxCell id="calRpf7Ut-MRDMJ-sCPS-18" value="Registro manual" style="points=[[0.25,0,0],[0.5,0,0],[0.75,0,0],[1,0.25,0],[1,0.5,0],[1,0.75,0],[0.75,1,0],[0.5,1,0],[0.25,1,0],[0,0.75,0],[0,0.5,0],[0,0.25,0]];shape=mxgraph.bpmn.task2;whiteSpace=wrap;rectStyle=rounded;size=10;html=1;container=1;expand=0;collapsible=0;taskMarker=abstract;" vertex="1" parent="calRpf7Ut-MRDMJ-sCPS-3">
          <mxGeometry x="179" y="220" width="114" height="40" as="geometry" />
        </mxCell>
        <mxCell id="calRpf7Ut-MRDMJ-sCPS-25" style="edgeStyle=orthogonalEdgeStyle;rounded=0;orthogonalLoop=1;jettySize=auto;html=1;" edge="1" parent="calRpf7Ut-MRDMJ-sCPS-3" source="calRpf7Ut-MRDMJ-sCPS-20" target="calRpf7Ut-MRDMJ-sCPS-24">
          <mxGeometry relative="1" as="geometry" />
        </mxCell>
        <mxCell id="calRpf7Ut-MRDMJ-sCPS-20" value="Informacion dispersa y dificil de consolidar" style="points=[[0.25,0,0],[0.5,0,0],[0.75,0,0],[1,0.25,0],[1,0.5,0],[1,0.75,0],[0.75,1,0],[0.5,1,0],[0.25,1,0],[0,0.75,0],[0,0.5,0],[0,0.25,0]];shape=mxgraph.bpmn.task2;whiteSpace=wrap;rectStyle=rounded;size=10;html=1;container=1;expand=0;collapsible=0;taskMarker=abstract;" vertex="1" parent="calRpf7Ut-MRDMJ-sCPS-3">
          <mxGeometry x="175.5" y="290" width="121" height="40" as="geometry" />
        </mxCell>
        <mxCell id="calRpf7Ut-MRDMJ-sCPS-22" style="edgeStyle=orthogonalEdgeStyle;rounded=0;orthogonalLoop=1;jettySize=auto;html=1;entryX=1;entryY=0.75;entryDx=0;entryDy=0;entryPerimeter=0;" edge="1" parent="calRpf7Ut-MRDMJ-sCPS-3" source="calRpf7Ut-MRDMJ-sCPS-17" target="calRpf7Ut-MRDMJ-sCPS-20">
          <mxGeometry relative="1" as="geometry">
            <Array as="points">
              <mxPoint x="390" y="320" />
            </Array>
          </mxGeometry>
        </mxCell>
        <mxCell id="calRpf7Ut-MRDMJ-sCPS-23" value="No existe ranking ni incentivos" style="text;html=1;strokeColor=none;fillColor=none;align=center;verticalAlign=middle;whiteSpace=wrap;rounded=0;" vertex="1" parent="calRpf7Ut-MRDMJ-sCPS-3">
          <mxGeometry x="95.5" y="290" width="80" height="40" as="geometry" />
        </mxCell>
        <mxCell id="calRpf7Ut-MRDMJ-sCPS-24" value="FIN" style="points=[[0.145,0.145,0],[0.5,0,0],[0.855,0.145,0],[1,0.5,0],[0.855,0.855,0],[0.5,1,0],[0.145,0.855,0],[0,0.5,0]];shape=mxgraph.bpmn.event;html=1;verticalLabelPosition=bottom;labelBackgroundColor=#ffffff;verticalAlign=top;align=center;perimeter=ellipsePerimeter;outlineConnect=0;aspect=fixed;outline=end;symbol=terminate;fillColor=#fad9d5;strokeColor=#ae4132;" vertex="1" parent="calRpf7Ut-MRDMJ-sCPS-3">
          <mxGeometry x="216" y="390" width="40" height="40" as="geometry" />
        </mxCell>
        <mxCell id="calRpf7Ut-MRDMJ-sCPS-14" style="edgeStyle=orthogonalEdgeStyle;rounded=0;orthogonalLoop=1;jettySize=auto;html=1;entryX=0.5;entryY=0;entryDx=0;entryDy=0;entryPerimeter=0;" edge="1" parent="calRpf7Ut-MRDMJ-sCPS-1" source="calRpf7Ut-MRDMJ-sCPS-7" target="calRpf7Ut-MRDMJ-sCPS-9">
          <mxGeometry relative="1" as="geometry" />
        </mxCell>
      </root>
    </mxGraphModel>
  </diagram>
  <diagram id="vbReLYNoK_ILcsRoj5a5" name="TO-BE">
    <mxGraphModel grid="1" page="1" gridSize="10" guides="1" tooltips="1" connect="1" arrows="1" fold="1" pageScale="1" pageWidth="827" pageHeight="1169" math="0" shadow="0">
      <root>
        <mxCell id="0" />
        <mxCell id="1" parent="0" />
        <mxCell id="VmAH0vc3C_4UoHnov0Tk-1" value="Sistema ReciclaDuoc" style="swimlane;html=1;childLayout=stackLayout;resizeParent=1;resizeParentMax=0;horizontal=0;startSize=20;horizontalStack=0;whiteSpace=wrap;" vertex="1" parent="1">
          <mxGeometry x="30" y="110" width="770" height="850" as="geometry" />
        </mxCell>
        <mxCell id="VmAH0vc3C_4UoHnov0Tk-2" value="Alumno" style="swimlane;html=1;startSize=20;horizontal=0;" vertex="1" parent="VmAH0vc3C_4UoHnov0Tk-1">
          <mxGeometry x="20" width="750" height="250" as="geometry" />
        </mxCell>
        <mxCell id="VmAH0vc3C_4UoHnov0Tk-9" style="edgeStyle=orthogonalEdgeStyle;rounded=0;orthogonalLoop=1;jettySize=auto;html=1;entryX=0;entryY=0.5;entryDx=0;entryDy=0;entryPerimeter=0;" edge="1" parent="VmAH0vc3C_4UoHnov0Tk-2" source="VmAH0vc3C_4UoHnov0Tk-5" target="VmAH0vc3C_4UoHnov0Tk-11">
          <mxGeometry relative="1" as="geometry">
            <mxPoint x="175" y="40" as="targetPoint" />
          </mxGeometry>
        </mxCell>
        <mxCell id="VmAH0vc3C_4UoHnov0Tk-5" value="&lt;span style=&quot;background-color: light-dark(rgb(255, 255, 255), rgb(0, 102, 204));&quot;&gt;Inicio&lt;/span&gt;" style="points=[[0.145,0.145,0],[0.5,0,0],[0.855,0.145,0],[1,0.5,0],[0.855,0.855,0],[0.5,1,0],[0.145,0.855,0],[0,0.5,0]];shape=mxgraph.bpmn.event;html=1;verticalLabelPosition=bottom;labelBackgroundColor=#ffffff;verticalAlign=top;align=center;perimeter=ellipsePerimeter;outlineConnect=0;aspect=fixed;outline=end;symbol=terminate;fillColor=#60a917;fontColor=#ffffff;strokeColor=#2D7600;" vertex="1" parent="VmAH0vc3C_4UoHnov0Tk-2">
          <mxGeometry x="50" y="20" width="40" height="40" as="geometry" />
        </mxCell>
        <mxCell id="VmAH0vc3C_4UoHnov0Tk-11" value="Alumno registra reciclaje en la WebApp" style="points=[[0.25,0,0],[0.5,0,0],[0.75,0,0],[1,0.25,0],[1,0.5,0],[1,0.75,0],[0.75,1,0],[0.5,1,0],[0.25,1,0],[0,0.75,0],[0,0.5,0],[0,0.25,0]];shape=mxgraph.bpmn.task2;whiteSpace=wrap;rectStyle=rounded;size=10;html=1;container=1;expand=0;collapsible=0;taskMarker=user;" vertex="1" parent="VmAH0vc3C_4UoHnov0Tk-2">
          <mxGeometry x="180" y="15" width="110" height="50" as="geometry" />
        </mxCell>
        <mxCell id="VmAH0vc3C_4UoHnov0Tk-12" value="Sube foto del reciclaje" style="points=[[0.25,0,0],[0.5,0,0],[0.75,0,0],[1,0.25,0],[1,0.5,0],[1,0.75,0],[0.75,1,0],[0.5,1,0],[0.25,1,0],[0,0.75,0],[0,0.5,0],[0,0.25,0]];shape=mxgraph.bpmn.task2;whiteSpace=wrap;rectStyle=rounded;size=10;html=1;container=1;expand=0;collapsible=0;taskMarker=user;" vertex="1" parent="VmAH0vc3C_4UoHnov0Tk-2">
          <mxGeometry x="182.5" y="110" width="105" height="50" as="geometry" />
        </mxCell>
        <mxCell id="VmAH0vc3C_4UoHnov0Tk-13" style="edgeStyle=orthogonalEdgeStyle;rounded=0;orthogonalLoop=1;jettySize=auto;html=1;entryX=0.5;entryY=0;entryDx=0;entryDy=0;entryPerimeter=0;" edge="1" parent="VmAH0vc3C_4UoHnov0Tk-2" source="VmAH0vc3C_4UoHnov0Tk-11" target="VmAH0vc3C_4UoHnov0Tk-12">
          <mxGeometry relative="1" as="geometry" />
        </mxCell>
        <mxCell id="VmAH0vc3C_4UoHnov0Tk-32" style="edgeStyle=orthogonalEdgeStyle;rounded=0;orthogonalLoop=1;jettySize=auto;html=1;entryX=0.42;entryY=-0.03;entryDx=0;entryDy=0;entryPerimeter=0;exitX=0;exitY=0.5;exitDx=0;exitDy=0;exitPerimeter=0;" edge="1" parent="VmAH0vc3C_4UoHnov0Tk-2" source="VmAH0vc3C_4UoHnov0Tk-28" target="VmAH0vc3C_4UoHnov0Tk-30">
          <mxGeometry relative="1" as="geometry">
            <mxPoint x="420" y="130" as="targetPoint" />
            <Array as="points">
              <mxPoint x="430" y="55" />
              <mxPoint x="430" y="129" />
            </Array>
          </mxGeometry>
        </mxCell>
        <mxCell id="VmAH0vc3C_4UoHnov0Tk-38" style="edgeStyle=orthogonalEdgeStyle;rounded=0;orthogonalLoop=1;jettySize=auto;html=1;" edge="1" parent="VmAH0vc3C_4UoHnov0Tk-2" source="VmAH0vc3C_4UoHnov0Tk-28" target="VmAH0vc3C_4UoHnov0Tk-37">
          <mxGeometry relative="1" as="geometry" />
        </mxCell>
        <mxCell id="VmAH0vc3C_4UoHnov0Tk-28" value="Â¿Alumno quiere consultar?" style="points=[[0.25,0.25,0],[0.5,0,0],[0.75,0.25,0],[1,0.5,0],[0.75,0.75,0],[0.5,1,0],[0.25,0.75,0],[0,0.5,0]];shape=mxgraph.bpmn.gateway2;html=1;verticalLabelPosition=bottom;labelBackgroundColor=#ffffff;verticalAlign=top;align=center;perimeter=rhombusPerimeter;outlineConnect=0;outline=none;symbol=none;" vertex="1" parent="VmAH0vc3C_4UoHnov0Tk-2">
          <mxGeometry x="510" y="20" width="70" height="70" as="geometry" />
        </mxCell>
        <mxCell id="VmAH0vc3C_4UoHnov0Tk-40" style="edgeStyle=orthogonalEdgeStyle;rounded=0;orthogonalLoop=1;jettySize=auto;html=1;" edge="1" parent="VmAH0vc3C_4UoHnov0Tk-2" source="VmAH0vc3C_4UoHnov0Tk-30" target="VmAH0vc3C_4UoHnov0Tk-37">
          <mxGeometry relative="1" as="geometry">
            <Array as="points">
              <mxPoint x="450" y="205" />
            </Array>
          </mxGeometry>
        </mxCell>
        <mxCell id="VmAH0vc3C_4UoHnov0Tk-30" value="Ver ranking o historial de reciclaje" style="points=[[0.25,0,0],[0.5,0,0],[0.75,0,0],[1,0.25,0],[1,0.5,0],[1,0.75,0],[0.75,1,0],[0.5,1,0],[0.25,1,0],[0,0.75,0],[0,0.5,0],[0,0.25,0]];shape=mxgraph.bpmn.task2;whiteSpace=wrap;rectStyle=rounded;size=10;html=1;container=1;expand=0;collapsible=0;taskMarker=user;" vertex="1" parent="VmAH0vc3C_4UoHnov0Tk-2">
          <mxGeometry x="390" y="130" width="100" height="40" as="geometry" />
        </mxCell>
        <mxCell id="VmAH0vc3C_4UoHnov0Tk-31" value="Si" style="text;html=1;strokeColor=none;fillColor=none;align=center;verticalAlign=middle;whiteSpace=wrap;rounded=0;" vertex="1" parent="VmAH0vc3C_4UoHnov0Tk-2">
          <mxGeometry x="480" y="40" width="80" height="30" as="geometry" />
        </mxCell>
        <mxCell id="VmAH0vc3C_4UoHnov0Tk-33" value="Si" style="text;html=1;strokeColor=none;fillColor=none;align=center;verticalAlign=middle;whiteSpace=wrap;rounded=0;" vertex="1" parent="VmAH0vc3C_4UoHnov0Tk-2">
          <mxGeometry x="530" y="40" width="80" height="30" as="geometry" />
        </mxCell>
        <mxCell id="VmAH0vc3C_4UoHnov0Tk-34" value="Canjear puntos" style="points=[[0.25,0,0],[0.5,0,0],[0.75,0,0],[1,0.25,0],[1,0.5,0],[1,0.75,0],[0.75,1,0],[0.5,1,0],[0.25,1,0],[0,0.75,0],[0,0.5,0],[0,0.25,0]];shape=mxgraph.bpmn.task2;whiteSpace=wrap;rectStyle=rounded;size=10;html=1;container=1;expand=0;collapsible=0;taskMarker=user;" vertex="1" parent="VmAH0vc3C_4UoHnov0Tk-2">
          <mxGeometry x="630" y="130" width="90" height="40" as="geometry" />
        </mxCell>
        <mxCell id="VmAH0vc3C_4UoHnov0Tk-35" style="edgeStyle=orthogonalEdgeStyle;rounded=0;orthogonalLoop=1;jettySize=auto;html=1;entryX=0.369;entryY=0.04;entryDx=0;entryDy=0;entryPerimeter=0;" edge="1" parent="VmAH0vc3C_4UoHnov0Tk-2" source="VmAH0vc3C_4UoHnov0Tk-28" target="VmAH0vc3C_4UoHnov0Tk-34">
          <mxGeometry relative="1" as="geometry">
            <Array as="points">
              <mxPoint x="673" y="55" />
            </Array>
          </mxGeometry>
        </mxCell>
        <mxCell id="VmAH0vc3C_4UoHnov0Tk-36" value="No" style="text;html=1;strokeColor=none;fillColor=none;align=center;verticalAlign=middle;whiteSpace=wrap;rounded=0;" vertex="1" parent="VmAH0vc3C_4UoHnov0Tk-2">
          <mxGeometry x="505" y="60" width="80" height="30" as="geometry" />
        </mxCell>
        <mxCell id="VmAH0vc3C_4UoHnov0Tk-37" value="FIN" style="points=[[0.145,0.145,0],[0.5,0,0],[0.855,0.145,0],[1,0.5,0],[0.855,0.855,0],[0.5,1,0],[0.145,0.855,0],[0,0.5,0]];shape=mxgraph.bpmn.event;html=1;verticalLabelPosition=bottom;labelBackgroundColor=#ffffff;verticalAlign=top;align=center;perimeter=ellipsePerimeter;outlineConnect=0;aspect=fixed;outline=end;symbol=terminate;fillColor=#fa6800;fontColor=#000000;strokeColor=#C73500;" vertex="1" parent="VmAH0vc3C_4UoHnov0Tk-2">
          <mxGeometry x="520" y="180" width="50" height="50" as="geometry" />
        </mxCell>
        <mxCell id="VmAH0vc3C_4UoHnov0Tk-39" style="edgeStyle=orthogonalEdgeStyle;rounded=0;orthogonalLoop=1;jettySize=auto;html=1;entryX=1;entryY=0.5;entryDx=0;entryDy=0;entryPerimeter=0;" edge="1" parent="VmAH0vc3C_4UoHnov0Tk-2" source="VmAH0vc3C_4UoHnov0Tk-34" target="VmAH0vc3C_4UoHnov0Tk-37">
          <mxGeometry relative="1" as="geometry">
            <Array as="points">
              <mxPoint x="670" y="205" />
            </Array>
          </mxGeometry>
        </mxCell>
        <mxCell id="VmAH0vc3C_4UoHnov0Tk-3" value="Sistema ReciclaDuoc" style="swimlane;html=1;startSize=20;horizontal=0;" vertex="1" parent="VmAH0vc3C_4UoHnov0Tk-1">
          <mxGeometry x="20" y="250" width="750" height="380" as="geometry" />
        </mxCell>
        <mxCell id="VmAH0vc3C_4UoHnov0Tk-27" style="edgeStyle=orthogonalEdgeStyle;rounded=0;orthogonalLoop=1;jettySize=auto;html=1;" edge="1" parent="VmAH0vc3C_4UoHnov0Tk-3" source="VmAH0vc3C_4UoHnov0Tk-14" target="VmAH0vc3C_4UoHnov0Tk-16">
          <mxGeometry relative="1" as="geometry" />
        </mxCell>
        <mxCell id="VmAH0vc3C_4UoHnov0Tk-14" value="VALIDACION" style="points=[[0.25,0.25,0],[0.5,0,0],[0.75,0.25,0],[1,0.5,0],[0.75,0.75,0],[0.5,1,0],[0.25,0.75,0],[0,0.5,0]];shape=mxgraph.bpmn.gateway2;html=1;verticalLabelPosition=bottom;labelBackgroundColor=#ffffff;verticalAlign=top;align=center;perimeter=rhombusPerimeter;outlineConnect=0;outline=none;symbol=none;" vertex="1" parent="VmAH0vc3C_4UoHnov0Tk-3">
          <mxGeometry x="200" y="10" width="70" height="60" as="geometry" />
        </mxCell>
        <mxCell id="VmAH0vc3C_4UoHnov0Tk-24" style="edgeStyle=orthogonalEdgeStyle;rounded=0;orthogonalLoop=1;jettySize=auto;html=1;" edge="1" parent="VmAH0vc3C_4UoHnov0Tk-3" source="VmAH0vc3C_4UoHnov0Tk-16" target="VmAH0vc3C_4UoHnov0Tk-18">
          <mxGeometry relative="1" as="geometry" />
        </mxCell>
        <mxCell id="VmAH0vc3C_4UoHnov0Tk-16" value="Generar marca de agua en foto" style="points=[[0.25,0,0],[0.5,0,0],[0.75,0,0],[1,0.25,0],[1,0.5,0],[1,0.75,0],[0.75,1,0],[0.5,1,0],[0.25,1,0],[0,0.75,0],[0,0.5,0],[0,0.25,0]];shape=mxgraph.bpmn.task2;whiteSpace=wrap;rectStyle=rounded;size=10;html=1;container=1;expand=0;collapsible=0;taskMarker=service;" vertex="1" parent="VmAH0vc3C_4UoHnov0Tk-3">
          <mxGeometry x="175" y="110" width="115" height="50" as="geometry" />
        </mxCell>
        <mxCell id="VmAH0vc3C_4UoHnov0Tk-25" style="edgeStyle=orthogonalEdgeStyle;rounded=0;orthogonalLoop=1;jettySize=auto;html=1;" edge="1" parent="VmAH0vc3C_4UoHnov0Tk-3" source="VmAH0vc3C_4UoHnov0Tk-18" target="VmAH0vc3C_4UoHnov0Tk-19">
          <mxGeometry relative="1" as="geometry" />
        </mxCell>
        <mxCell id="VmAH0vc3C_4UoHnov0Tk-18" value="Asignar puntos segun material y cantidad" style="points=[[0.25,0,0],[0.5,0,0],[0.75,0,0],[1,0.25,0],[1,0.5,0],[1,0.75,0],[0.75,1,0],[0.5,1,0],[0.25,1,0],[0,0.75,0],[0,0.5,0],[0,0.25,0]];shape=mxgraph.bpmn.task2;whiteSpace=wrap;rectStyle=rounded;size=10;html=1;container=1;expand=0;collapsible=0;taskMarker=service;" vertex="1" parent="VmAH0vc3C_4UoHnov0Tk-3">
          <mxGeometry x="177.5" y="190" width="110" height="40" as="geometry" />
        </mxCell>
        <mxCell id="VmAH0vc3C_4UoHnov0Tk-26" style="edgeStyle=orthogonalEdgeStyle;rounded=0;orthogonalLoop=1;jettySize=auto;html=1;" edge="1" parent="VmAH0vc3C_4UoHnov0Tk-3" source="VmAH0vc3C_4UoHnov0Tk-19" target="VmAH0vc3C_4UoHnov0Tk-20">
          <mxGeometry relative="1" as="geometry" />
        </mxCell>
        <mxCell id="VmAH0vc3C_4UoHnov0Tk-19" value="Actualizar puntos de usuario" style="points=[[0.25,0,0],[0.5,0,0],[0.75,0,0],[1,0.25,0],[1,0.5,0],[1,0.75,0],[0.75,1,0],[0.5,1,0],[0.25,1,0],[0,0.75,0],[0,0.5,0],[0,0.25,0]];shape=mxgraph.bpmn.task2;whiteSpace=wrap;rectStyle=rounded;size=10;html=1;container=1;expand=0;collapsible=0;taskMarker=service;" vertex="1" parent="VmAH0vc3C_4UoHnov0Tk-3">
          <mxGeometry x="177.5" y="250" width="110" height="50" as="geometry" />
        </mxCell>
        <mxCell id="VmAH0vc3C_4UoHnov0Tk-20" value="Actualizar ranking en tiempo real" style="points=[[0.25,0,0],[0.5,0,0],[0.75,0,0],[1,0.25,0],[1,0.5,0],[1,0.75,0],[0.75,1,0],[0.5,1,0],[0.25,1,0],[0,0.75,0],[0,0.5,0],[0,0.25,0]];shape=mxgraph.bpmn.task2;whiteSpace=wrap;rectStyle=rounded;size=10;html=1;container=1;expand=0;collapsible=0;taskMarker=service;" vertex="1" parent="VmAH0vc3C_4UoHnov0Tk-3">
          <mxGeometry x="177.5" y="320" width="110" height="40" as="geometry" />
        </mxCell>
        <mxCell id="VmAH0vc3C_4UoHnov0Tk-41" value="IA" style="text;html=1;strokeColor=none;fillColor=none;align=center;verticalAlign=middle;whiteSpace=wrap;rounded=0;" vertex="1" parent="VmAH0vc3C_4UoHnov0Tk-3">
          <mxGeometry x="230" y="40" width="80" height="30" as="geometry" />
        </mxCell>
        <mxCell id="VmAH0vc3C_4UoHnov0Tk-42" value="MT" style="text;html=1;strokeColor=none;fillColor=none;align=center;verticalAlign=middle;whiteSpace=wrap;rounded=0;" vertex="1" parent="VmAH0vc3C_4UoHnov0Tk-3">
          <mxGeometry x="150" y="20" width="80" height="30" as="geometry" />
        </mxCell>
        <mxCell id="VmAH0vc3C_4UoHnov0Tk-4" value="Administrador" style="swimlane;html=1;startSize=20;horizontal=0;" vertex="1" parent="VmAH0vc3C_4UoHnov0Tk-1">
          <mxGeometry x="20" y="630" width="750" height="220" as="geometry" />
        </mxCell>
        <mxCell id="VmAH0vc3C_4UoHnov0Tk-21" value="Revisar evidencia&lt;br&gt;Aprobar/Rechazar" style="points=[[0.25,0,0],[0.5,0,0],[0.75,0,0],[1,0.25,0],[1,0.5,0],[1,0.75,0],[0.75,1,0],[0.5,1,0],[0.25,1,0],[0,0.75,0],[0,0.5,0],[0,0.25,0]];shape=mxgraph.bpmn.task2;whiteSpace=wrap;rectStyle=rounded;size=10;html=1;container=1;expand=0;collapsible=0;taskMarker=manual;" vertex="1" parent="VmAH0vc3C_4UoHnov0Tk-4">
          <mxGeometry x="30" y="40" width="120" height="80" as="geometry" />
        </mxCell>
        <mxCell id="VmAH0vc3C_4UoHnov0Tk-15" style="edgeStyle=orthogonalEdgeStyle;rounded=0;orthogonalLoop=1;jettySize=auto;html=1;entryX=0.5;entryY=0;entryDx=0;entryDy=0;entryPerimeter=0;" edge="1" parent="VmAH0vc3C_4UoHnov0Tk-1" source="VmAH0vc3C_4UoHnov0Tk-12" target="VmAH0vc3C_4UoHnov0Tk-14">
          <mxGeometry relative="1" as="geometry" />
        </mxCell>
        <mxCell id="VmAH0vc3C_4UoHnov0Tk-22" style="edgeStyle=orthogonalEdgeStyle;rounded=0;orthogonalLoop=1;jettySize=auto;html=1;exitX=0;exitY=0.5;exitDx=0;exitDy=0;exitPerimeter=0;entryX=0.35;entryY=-0.025;entryDx=0;entryDy=0;entryPerimeter=0;" edge="1" parent="VmAH0vc3C_4UoHnov0Tk-1" source="VmAH0vc3C_4UoHnov0Tk-14" target="VmAH0vc3C_4UoHnov0Tk-21">
          <mxGeometry relative="1" as="geometry">
            <mxPoint x="89" y="670" as="targetPoint" />
            <Array as="points">
              <mxPoint x="90" y="285" />
              <mxPoint x="90" y="668" />
            </Array>
          </mxGeometry>
        </mxCell>
        <mxCell id="VmAH0vc3C_4UoHnov0Tk-23" style="edgeStyle=orthogonalEdgeStyle;rounded=0;orthogonalLoop=1;jettySize=auto;html=1;entryX=0;entryY=0.5;entryDx=0;entryDy=0;entryPerimeter=0;" edge="1" parent="VmAH0vc3C_4UoHnov0Tk-1" source="VmAH0vc3C_4UoHnov0Tk-21" target="VmAH0vc3C_4UoHnov0Tk-16">
          <mxGeometry relative="1" as="geometry">
            <Array as="points">
              <mxPoint x="130" y="380" />
              <mxPoint x="195" y="380" />
            </Array>
          </mxGeometry>
        </mxCell>
        <mxCell id="VmAH0vc3C_4UoHnov0Tk-29" style="edgeStyle=orthogonalEdgeStyle;rounded=0;orthogonalLoop=1;jettySize=auto;html=1;entryX=0.5;entryY=0;entryDx=0;entryDy=0;entryPerimeter=0;" edge="1" parent="VmAH0vc3C_4UoHnov0Tk-1" source="VmAH0vc3C_4UoHnov0Tk-20" target="VmAH0vc3C_4UoHnov0Tk-28">
          <mxGeometry relative="1" as="geometry">
            <Array as="points">
              <mxPoint x="400" y="580" />
              <mxPoint x="400" y="20" />
            </Array>
          </mxGeometry>
        </mxCell>
      </root>
    </mxGraphModel>
  </diagram>
</mxfile>
